# xmcd
#
# Track frame offsets: 
#        150
#        23249
#        42932
#        62020
#        76431
#        95306
#        129152
#        147879
#
# Disc length: 2337 seconds
#
# Revision: 0
# Processed by: cddbd v1.5.2PL0 Copyright (c) Steve Scherf et al.
# Submitted via: ExactAudioCopy v1.0b3
#
DISCID=5f091f08
DTITLE=bassy - ピアノムシが孵ったら
DYEAR=2011
DGENRE=Pop
TTITLE0=bassy feat. Annabel - 線と点
TTITLE1=bassy feat. セリユ - 少年の夜
TTITLE2=bassy feat. 南条あきら - 愛せる気持ち
TTITLE3=bassy feat. 茶太 - 走れ! 中央線
TTITLE4=bassy feat. Annabel - カラエダマビレ
TTITLE5=bassy feat. 南条あきら - ココロネ
TTITLE6=bassy feat. 茶太 - スーパースターはもういない
TTITLE7=bassy feat. セリユ - D.C.
EXTD=
EXTT0=
EXTT1=
EXTT2=
EXTT3=
EXTT4=
EXTT5=
EXTT6=
EXTT7=
PLAYORDER=
